<svg width="177" height="185" viewBox="0 0 177 185" fill="none" xmlns="http://www.w3.org/2000/svg">
<path d="M112.841 36.6951C110.758 36.841 108.636 36.9782 106.489 37.117C93.2737 37.9713 79.0731 38.8893 66.8945 42.3063C52.6953 46.2904 40.9919 53.7429 36.7688 68.6489C31.3625 87.7311 31.6007 109.647 37.892 128.421C44.1854 147.201 56.5769 162.933 75.5368 169.412C83.8618 172.257 91.0403 171.291 97.4149 167.786C103.74 164.309 109.22 158.363 114.284 151.343C118.819 145.055 123.077 137.823 127.328 130.602C127.826 129.755 128.324 128.91 128.822 128.065C133.589 119.991 138.391 112.063 143.661 105.48C145.302 103.431 147.059 101.357 148.837 99.2597C153.06 94.2753 157.396 89.1583 160.546 83.9257C165.063 76.4245 167.333 68.4045 163.479 59.7677C155.026 40.8249 133 35.2827 112.841 36.6951Z" fill="url(#paint0_linear_5990_1806)" stroke="#EAEAEA" stroke-width="2"/>
<path d="M88.9714 117.88L87.68 135.551L77.6 133.142L68 129.289C68 129.289 69.2739 120.343 73.16 116.765C75.8767 114.264 81.2871 113.082 83.4229 112.698C83.9868 112.596 84.5537 112.797 84.9478 113.213L88.7298 117.203C88.9019 117.384 88.9896 117.63 88.9714 117.88Z" fill="#ABABAB"/>
<path d="M93.0286 117.88L94.32 135.551L104.4 133.142L114 129.289C114 129.289 112.726 120.343 108.84 116.765C106.123 114.264 100.713 113.082 98.5771 112.698C98.0132 112.596 97.4463 112.797 97.0522 113.213L93.2702 117.203C93.0981 117.384 93.0104 117.63 93.0286 117.88Z" fill="#ABABAB"/>
<ellipse cx="90" cy="93.5508" rx="12" ry="13" fill="#ABABAB"/>
<path d="M119.332 128.223C117.644 127.17 114.683 128.362 114.163 128.757L124.122 110.027C124.122 110.027 125.515 114.582 127.311 115.327C134.298 118.222 153.516 125.328 153.516 125.328C153.516 125.328 160.707 128.644 164.26 132.107C167.096 134.87 166.85 139.879 166.23 141.353C165.61 142.827 166.23 141.353 164.055 145.444C161.88 149.535 153.775 148.587 153.775 148.587C153.775 148.587 148.668 147.273 145.855 145.441C145.855 145.441 127.4 133.25 119.332 128.223Z" fill="#8E8E8E"/>
<circle cx="89.3433" cy="103.147" r="33.2523" transform="rotate(-16.9993 89.3433 103.147)" stroke="#8E8E8E" stroke-width="6"/>
<defs>
<linearGradient id="paint0_linear_5990_1806" x1="152" y1="164.551" x2="54" y2="27.5508" gradientUnits="userSpaceOnUse">
<stop stop-color="#FDEB4B"/>
<stop offset="1" stop-color="#FFF6A4"/>
</linearGradient>
</defs>
</svg>
